<svg xmlns="http://www.w3.org/2000/svg" viewBox="0 0 850 850"><defs><style>.cls-1{fill:#fff;}</style></defs><g id="katman_2" data-name="katman 2"><g id="katman_1-2" data-name="katman 1"><path class="cls-1" d="M0,241.46,0,129.72A129.67,129.67,0,0,1,129.72,0L241.46,0c57.8,0,86.76,69.9,45.9,110.76L110.79,287.36C69.93,328.22,0,299.26,0,241.46Z"/><path class="cls-1" d="M303.92,479.3c0-11.44-2.35-78.87,47.13-128.19C400.28,302.05,467.73,304,479.27,304l81.23-.18c57.07,0,101.78-20.7,142.15-61.1L832,113.37C872.61,72.68,839.63,1,782.15,1.07L702.27,0C611.09.07,557,23.7,492.42,88.18L88.14,492.45C23.18,557.31-.2,610.54,0,702.25l1,79.93c.13,57.41,71.7,90.43,112.31,49.8l129.29-129.3c40.34-40.36,61.06-85.13,61.1-142.14Z"/></g></g></svg>